# xmcd
#
# Track frame offsets: 
#        150
#        18010
#        34070
#        47824
#        62965
#        78765
#        92941
#        106470
#        120788
#        136899
#        152789
#        166737
#        181739
#        194576
#
# Disc length: 2761 seconds
#
# Revision: 2
# Processed by: cddbd v1.5.2PL0 Copyright (c) Steve Scherf et al.
# Submitted via: ExactAudioCopy v1.0b3
#
DISCID=a90ac70e
DTITLE=Truck Stop - Starboulevard CD1
DYEAR=2004
DGENRE=Country
TTITLE0=Amerika
TTITLE1=Ich moechte so gern Dave Dudley hoer'n
TTITLE2=Hilly Billy Country Lilly
TTITLE3=Mein Opa das bin ich
TTITLE4=Ich steh' auf Jeans und Country-Music
TTITLE5=Das gibt's doch nur in Dallas
TTITLE6=Take It Easy altes Haus
TTITLE7=Nashville Tennessee
TTITLE8=Der Roadie von der Country Band
TTITLE9=Geiger in der Country Band
TTITLE10=Asphaltfieber
TTITLE11=Black Jack
TTITLE12=Ich und mein Diesel
TTITLE13=Der wilde, wilde Westen
EXTD=YEAR: 2004
EXTT0=
EXTT1=
EXTT2=
EXTT3=
EXTT4=
EXTT5=
EXTT6=
EXTT7=
EXTT8=
EXTT9=
EXTT10=
EXTT11=
EXTT12=
EXTT13=
PLAYORDER=
